<?xml version="1.0" encoding="iso-8859-1"?>
<!-- Uploaded to: SVG Repo, www.svgrepo.com, Generator: SVG Repo Mixer Tools -->
<svg version="1.1" id="Layer_1" xmlns="http://www.w3.org/2000/svg" xmlns:xlink="http://www.w3.org/1999/xlink" 
	 viewBox="0 0 500.515 500.515" xml:space="preserve">
<rect x="19.708" y="13.643" style="fill:#135BD8;" width="461.115" height="473.246"/>
<polyline style="fill:#0F3FAA;" points="19.708,13.643 480.8,13.643 480.8,486.873 "/>
<path style="fill:#3BABFF;" d="M494.442,500.515H6.073V0h488.369V500.515z M33.359,473.214h433.79V27.301H33.359V473.214z"/>
<polyline style="fill:#135BD8;" points="295.605,25.781 295.605,139.532 341.11,139.532 341.11,244.185 470.796,244.185 "/>
<polygon style="fill:#3BABFF;" points="470.796,257.843 327.467,257.843 327.467,153.183 281.962,153.183 281.962,25.781 
	309.272,25.781 309.272,125.881 354.761,125.881 354.761,230.542 470.796,230.542 "/>
<rect x="20.322" y="237.355" style="fill:#3BABFF;" width="131.954" height="27.301"/>
<polyline style="fill:#135BD8;" points="200.058,301.072 200.058,419.367 279.686,419.367 279.686,483.076 "/>
<polygon style="fill:#3BABFF;" points="293.337,483.076 266.035,483.076 266.035,433.018 186.407,433.018 186.407,301.072 
	213.701,301.072 213.701,405.717 293.337,405.717 "/>
</svg>