<?xml version="1.0" encoding="UTF-8" standalone="no"?>
<svg
   xmlns:dc="http://purl.org/dc/elements/1.1/"
   xmlns:cc="http://creativecommons.org/ns#"
   xmlns:rdf="http://www.w3.org/1999/02/22-rdf-syntax-ns#"
   xmlns:svg="http://www.w3.org/2000/svg"
   xmlns="http://www.w3.org/2000/svg"
   viewBox="0 0 365.33334 286.66666"
   height="286.66666"
   width="365.33334"
   xml:space="preserve"
   id="svg2"
   version="1.1"><metadata
     id="metadata8"><rdf:RDF><cc:Work
         rdf:about=""><dc:format>image/svg+xml</dc:format><dc:type
           rdf:resource="http://purl.org/dc/dcmitype/StillImage" /></cc:Work></rdf:RDF></metadata><defs
     id="defs6" /><g
     transform="matrix(1.3333333,0,0,-1.3333333,0,286.66667)"
     id="g10"><g
       transform="scale(0.1)"
       id="g12"><path
         id="path14"
         style="fill:#003399;fill-opacity:0.1;fill-rule:evenodd;stroke:none"
         d="m 1402.86,1096.66 c 53.38,0.11 106.09,0.23 158.13,0.33 51.38,0.1 102.02,0.21 152.06,0.31 0.06,-45.12 0.11,-90.19 0.16,-135.261 0.05,-45.062 0.1,-90.195 0.15,-135.258 -50.09,-1.914 -100.78,-3.851 -152.14,-5.808 -52.09,-1.989 -104.93,-4.004 -158.36,-6.051 0,46.937 0,93.933 0,140.867 0,46.941 0,93.871 0,140.871 z m 380.39,0.79 c 49.38,0.1 98.09,0.2 146.19,0.3 47.44,0.09 94.35,0.19 140.65,0.28 0.11,-42.97 0.22,-85.89 0.33,-128.807 0.11,-42.977 0.22,-85.891 0.33,-128.868 -46.36,-1.765 -93.3,-3.558 -140.79,-5.371 -48.16,-1.836 -96.91,-3.695 -146.33,-5.586 -0.07,44.707 -0.13,89.407 -0.19,134.055 -0.06,44.637 -0.13,89.287 -0.19,133.997 z m 287.64,-311.938 c 0.11,-43.895 0.22,-87.91 0.33,-131.746 0.12,-43.895 0.23,-87.911 0.34,-131.805 -46.41,-3.836 -93.42,-7.719 -140.96,-11.645 -48.21,-3.992 -96.96,-8.031 -146.51,-12.121 -0.07,45.664 -0.14,91.446 -0.2,137.106 -0.06,45.664 -0.12,91.387 -0.19,137.047 49.44,2.273 98.21,4.507 146.37,6.718 47.49,2.18 94.46,4.329 140.82,6.446 z M 1713.8,492.375 c -50.21,-4.141 -100.97,-8.344 -152.39,-12.594 -52.16,-4.312 -105.05,-8.687 -158.55,-13.121 0,48.004 0,96.137 0,144.145 0,48.004 0,96.136 0,144.144 53.44,2.457 106.29,4.875 158.39,7.262 51.37,2.355 102.07,4.684 152.18,6.98 0.05,-46.093 0.17,-92.316 0.22,-138.406 0.05,-46.097 0.1,-92.312 0.15,-138.41 z m -821.413,657.165 -830.3245,11.66 827.0745,5.07 947.323,942.34 z m 843.543,819.59 745.7,-765.52 -368.61,368.77 z M 110.422,640.809 52.1758,636.387 v -168 L 949.641,1.80469 2556.88,212.387 l -2.94,222.152 -51.56,12.445 1.42,733.316 228.32,-1.23 3.49,55.82 -875.13,907.94 L 626.301,1786.37 7.46094,1167.36 22.4063,1127.38 111.059,1120.31 Z M 380.906,987.129 600.137,976.125 601.234,242 380.906,345.227 Z m -52.793,35.741 275.688,-14.31 V 400.711 L 957.789,258.484 2461.96,407.352 957.383,224.441 603.805,380.719 603.801,219.559 328.113,350.867 V 502.566 L 106.43,600.547 328.113,511.48 v 511.39" /></g></g></svg>