<?xml version="1.0" standalone="no"?>
<!DOCTYPE svg PUBLIC "-//W3C//DTD SVG 20010904//EN"
 "http://www.w3.org/TR/2001/REC-SVG-20010904/DTD/svg10.dtd">
<svg version="1.0" xmlns="http://www.w3.org/2000/svg"
 width="512.000000pt" height="512.000000pt" viewBox="0 0 512.000000 512.000000"
 preserveAspectRatio="xMidYMid meet">

<g transform="translate(0.000000,512.000000) scale(0.100000,-0.100000)"
fill="#000000" stroke="none">
<path d="M2475 4736 c-16 -8 -171 -129 -343 -270 -172 -141 -315 -256 -317
-256 -3 0 -5 67 -5 149 0 145 -1 149 -25 173 -14 14 -39 28 -56 32 -18 3 -162
6 -321 6 -231 0 -296 -3 -324 -15 -64 -26 -64 -30 -64 -542 l-1 -458 -502
-410 c-548 -448 -538 -438 -503 -511 18 -40 66 -65 108 -57 15 3 142 100 290
220 l263 216 5 -1298 5 -1297 28 -24 28 -24 1819 0 1819 0 28 24 28 24 5 1297
5 1298 263 -216 c148 -120 275 -217 290 -220 67 -13 130 52 117 120 -5 28 -25
49 -113 122 -704 581 -2334 1907 -2359 1917 -41 18 -129 17 -168 0z m163 -250
c20 -14 388 -312 817 -663 l780 -639 3 -1307 2 -1307 -1680 0 -1680 0 2 1307
3 1307 780 639 c429 351 796 649 815 662 48 33 109 33 158 1z m-1029 -288 l0
-163 -52 -41 c-29 -23 -114 -91 -189 -153 l-138 -112 0 316 0 315 190 0 190 0
-1 -162z"/>
</g>
</svg>
