<?xml version="1.0" standalone="no"?>
<!DOCTYPE svg PUBLIC "-//W3C//DTD SVG 20010904//EN"
 "http://www.w3.org/TR/2001/REC-SVG-20010904/DTD/svg10.dtd">
<svg version="1.0" xmlns="http://www.w3.org/2000/svg"
 width="512.000000pt" height="512.000000pt" viewBox="0 0 512.000000 512.000000"
 preserveAspectRatio="xMidYMid meet">

<g transform="translate(0.000000,512.000000) scale(0.100000,-0.100000)"
fill="#000000" stroke="none">
<path d="M1318 4029 c-667 -556 -1219 -1018 -1226 -1027 -20 -26 -14 -71 13
-97 24 -25 27 -25 200 -25 l175 0 0 -1375 0 -1376 25 -24 24 -25 2031 0 2031
0 24 25 25 24 0 1376 0 1375 175 0 c173 0 176 0 200 25 32 31 33 76 3 108 -13
14 -103 91 -200 172 l-178 147 0 709 0 710 -25 24 -24 25 -389 0 c-369 0 -391
-1 -413 -19 l-24 -19 -5 -346 -5 -347 -583 486 c-473 394 -588 485 -611 485
-24 0 -249 -183 -1243 -1011z m1864 310 c331 -276 614 -509 629 -516 33 -16
70 -5 93 29 14 20 16 70 16 405 l0 383 280 0 280 0 0 -681 c0 -451 3 -687 10
-700 6 -10 63 -63 128 -117 l117 -97 -108 -5 c-99 -5 -111 -7 -128 -29 -18
-23 -19 -60 -19 -1397 l0 -1374 -1920 0 -1920 0 0 1374 c0 1337 -1 1374 -19
1397 -17 22 -29 24 -126 29 l-108 5 1084 903 c596 496 1089 900 1096 898 7 -3
283 -231 615 -507z"/>
<path d="M2004 3671 c-266 -69 -406 -414 -268 -660 13 -24 24 -45 24 -46 0 -1
-34 -5 -76 -8 -146 -11 -257 -92 -338 -246 l-37 -71 -172 0 c-95 0 -190 -5
-212 -11 -49 -14 -102 -68 -111 -114 -3 -20 24 -328 66 -727 80 -773 78 -763
155 -805 39 -22 50 -23 303 -23 l262 0 0 -79 0 -80 -189 -3 c-173 -3 -192 -5
-217 -24 -56 -41 -69 -69 -73 -159 -3 -79 -1 -85 23 -109 33 -34 79 -34 111
-1 21 20 25 34 25 80 l0 55 400 0 400 0 0 -55 c0 -46 4 -60 25 -80 32 -33 78
-33 111 1 24 24 26 30 23 109 -4 90 -17 118 -73 159 -25 19 -44 21 -217 24
l-189 3 0 80 0 79 330 0 330 0 4 -22 c3 -13 12 -70 21 -127 19 -125 40 -176
97 -233 111 -111 285 -129 362 -37 51 60 51 74 17 496 -18 213 -37 404 -42
424 -12 47 -59 111 -101 137 -18 11 -121 46 -228 77 -107 31 -203 58 -212 61
-17 5 -18 27 -18 270 l0 265 -25 24 c-32 33 -78 33 -110 0 l-25 -24 0 -309 c0
-280 2 -312 18 -331 12 -16 80 -39 260 -91 240 -68 265 -78 282 -109 11 -22
74 -757 66 -777 -5 -13 -17 -16 -63 -12 -49 4 -61 9 -83 37 -41 49 -50 92 -61
286 -21 388 -23 397 -93 449 -26 20 -43 21 -301 24 l-273 3 -6 32 c-3 18 -35
255 -71 527 -36 272 -72 514 -81 538 -25 67 -75 95 -180 100 l-84 4 18 30 c28
49 97 106 142 118 27 7 135 10 315 8 l273 -3 44 -30 c70 -50 99 -105 176 -337
82 -247 114 -323 141 -337 12 -7 94 -11 204 -11 224 0 228 -2 235 -99 l4 -61
-256 0 -257 0 -24 -25 c-16 -15 -25 -36 -25 -55 0 -19 9 -40 25 -55 l24 -25
456 0 455 0 0 -575 0 -576 25 -24 c32 -33 78 -33 110 0 l25 24 0 576 0 575
240 0 240 0 0 -575 0 -576 25 -24 c32 -33 78 -33 110 0 l25 24 0 631 0 631
-25 24 c-23 24 -30 25 -144 25 l-119 0 184 552 c101 304 184 563 184 576 0 13
-11 34 -25 47 l-24 25 -669 0 c-623 0 -671 -1 -691 -17 -15 -13 -50 -104 -116
-303 -52 -156 -95 -295 -95 -308 0 -33 43 -72 78 -72 56 0 68 21 155 285 l84
250 556 3 555 2 -120 -360 -120 -360 -279 0 -280 0 -24 -25 c-33 -32 -33 -78
0 -110 l24 -25 251 0 c137 0 250 -4 250 -8 0 -4 -11 -39 -23 -78 l-24 -69
-291 -3 -292 -2 0 56 c0 87 -18 133 -75 189 -66 66 -98 75 -281 75 l-149 0
-27 78 c-151 437 -184 505 -280 568 l-45 30 35 44 c111 146 132 332 55 497
-61 130 -180 212 -319 218 -44 3 -93 1 -110 -4z m182 -175 c108 -50 156 -175
120 -316 -46 -180 -187 -263 -332 -196 -89 41 -129 117 -129 241 1 126 54 223
148 270 65 32 125 33 193 1z m-572 -1053 c12 -74 146 -1086 146 -1100 0 -8 11
-25 25 -38 l24 -25 296 0 295 0 0 -80 0 -80 -645 0 c-466 0 -645 3 -645 11 0
6 -31 308 -70 671 -38 363 -70 664 -70 669 0 5 137 9 319 9 l319 0 6 -37z"/>
</g>
</svg>
